# xmcd
#
# Track frame offsets: 
#        150
#        18445
#        34445
#        47968
#        69873
#        91150
#        109531
#        129505
#        147650
#        166721
#        197420
#        212580
#
# Disc length: 3049 seconds
#
# Revision: 0
# Processed by: cddbd v1.5.2PL0 Copyright (c) Steve Scherf et al.
# Submitted via: ExactAudioCopy v0.95a5
#
DISCID=a00be70c
DTITLE=Eddie Taylor Jr  - Mind Games - Chicago Blues Session Vol 65
DYEAR=2006
DGENRE=Blues
TTITLE0=I've Made Nights By Myself
TTITLE1=Use What You Got
TTITLE2=Pink Champagne
TTITLE3=That's All I Need
TTITLE4=I'm So Blue
TTITLE5=Look On Yonder's Wall
TTITLE6=You've Got Me Licked
TTITLE7=Let Me Love You Baby
TTITLE8=Trying To Play A Mind Game
TTITLE9=Forty-Four
TTITLE10=Feel Like Breaking Up Somebody's Home
TTITLE11=Eddie's Groove
EXTD=
EXTT0=
EXTT1=
EXTT2=
EXTT3=
EXTT4=
EXTT5=
EXTT6=
EXTT7=
EXTT8=
EXTT9=
EXTT10=
EXTT11=
PLAYORDER=
